<?xml version="1.0" standalone="no"?>
<!DOCTYPE svg PUBLIC "-//W3C//DTD SVG 20010904//EN"
 "http://www.w3.org/TR/2001/REC-SVG-20010904/DTD/svg10.dtd">
<svg version="1.0" xmlns="http://www.w3.org/2000/svg"
 width="1200.000000pt" height="1200.000000pt" viewBox="0 0 1200.000000 1200.000000"
 preserveAspectRatio="xMidYMid meet">
<metadata>
Created by potrace 1.16, written by Peter Selinger 2001-2019
</metadata>
<g transform="translate(0.000000,1200.000000) scale(0.100000,-0.100000)"
fill="#000000" stroke="none">
<path d="M5065 7709 c-403 -33 -753 -241 -980 -585 -30 -45 -66 -108 -80 -140
-15 -33 -33 -74 -41 -92 -40 -88 -78 -231 -99 -372 -28 -192 -12 -424 41 -588
34 -104 45 -130 99 -227 147 -265 394 -427 741 -486 100 -17 394 2 508 32 129
34 158 43 234 74 109 45 269 140 277 164 3 11 10 54 15 98 6 43 17 134 26 203
8 69 22 177 29 240 8 63 22 174 31 245 9 72 17 153 18 180 l1 50 -402 3 c-467
3 -417 18 -434 -130 -24 -216 -24 -211 4 -244 25 -29 27 -29 149 -34 l123 -5
-2 -45 c-1 -25 -6 -83 -12 -130 -27 -229 -19 -205 -81 -228 -63 -22 -183 -42
-262 -42 -182 0 -336 83 -433 234 -40 63 -58 110 -86 219 -27 110 -27 356 0
488 67 323 226 532 479 627 60 22 83 25 207 26 119 1 151 -3 212 -22 67 -21
168 -69 203 -97 69 -54 152 -70 211 -40 31 17 239 261 239 281 0 34 -223 205
-319 246 -25 11 -55 23 -66 28 -129 56 -361 85 -550 69z"/>
<path d="M2136 7674 c-4 -9 -11 -60 -16 -113 -6 -53 -14 -130 -20 -171 -13
-103 -36 -290 -55 -445 -44 -357 -71 -577 -90 -725 -8 -63 -21 -176 -30 -250
-24 -208 -45 -375 -60 -490 -8 -58 -16 -134 -17 -170 l-3 -65 255 -3 c140 -1
265 0 276 3 18 4 22 14 27 62 3 32 13 117 22 188 29 224 44 346 56 456 l12
106 231 6 c183 4 251 10 326 27 297 67 527 235 630 463 65 144 81 219 87 405
6 198 -18 295 -103 424 -62 93 -142 161 -249 213 -82 39 -128 53 -283 84 -34
7 -227 11 -522 11 -424 0 -468 -2 -474 -16z m917 -443 c127 -61 170 -173 147
-385 -6 -54 -15 -106 -19 -115 -5 -9 -15 -32 -24 -51 -29 -69 -121 -150 -197
-175 -14 -4 -112 -11 -219 -14 l-193 -6 6 55 c16 126 37 298 51 413 30 240 34
272 34 295 l1 24 173 -4 c171 -3 172 -4 240 -37z"/>
<path d="M7060 7505 c-157 -91 -293 -174 -302 -186 -16 -19 -18 -52 -18 -348
l0 -326 -281 -160 c-200 -114 -284 -167 -290 -183 -5 -13 -9 -174 -9 -357 0
-332 0 -334 23 -358 30 -33 579 -347 606 -347 12 0 144 71 294 157 150 87 279
157 287 157 8 0 137 -70 287 -157 150 -86 281 -157 291 -157 19 0 569 308 605
338 16 14 17 42 15 380 l-3 365 -282 161 -283 161 0 327 c0 325 0 327 -22 351
-33 35 -582 347 -610 346 -13 0 -151 -74 -308 -164z m577 -87 l263 -153 -2
-309 -3 -309 -255 -148 c-140 -82 -262 -148 -270 -148 -8 0 -130 66 -270 148
l-255 148 -3 309 -2 309 262 152 c145 84 265 153 267 153 3 0 123 -69 268
-152z m628 -1034 l210 -122 3 -308 2 -309 -265 -153 c-146 -85 -269 -152 -273
-150 -5 2 -124 70 -265 152 l-257 149 2 311 3 310 260 152 260 151 55 -30 c30
-17 150 -86 265 -153z m-1205 27 l255 -148 3 -309 2 -309 -265 -154 -265 -153
-265 153 -265 154 2 309 3 309 255 148 c140 82 262 148 270 148 8 0 130 -66
270 -148z"/>
</g>
</svg>
